<?xml version="1.0" encoding="utf-8"?>
<svg version="1.1" xmlns="http://www.w3.org/2000/svg" xmlns:xlink="http://www.w3.org/1999/xlink" x="0px" y="0px"
	 width="1118.094px" height="213.3px" viewBox="0 0 1118.094 213.3" enable-background="new 0 0 1118.094 213.3"
	 xml:space="preserve">
<g id="chaos">
	<g>
		<path d="M0,160.8V10.2c0-1.997,0.699-3.699,2.1-5.1C3.497,3.703,5.199,3,7.2,3c1.997,0,3.75,0.703,5.25,2.1
			c1.5,1.401,2.25,3.103,2.25,5.1v150.6c0,2.002-0.703,3.75-2.1,5.25c-1.401,1.5-3.15,2.25-5.25,2.25s-3.853-0.75-5.25-2.25
			C0.699,164.55,0,162.802,0,160.8z M0,205.8v-7.2c0-1.996,0.699-3.698,2.1-5.1c1.397-1.396,3.099-2.1,5.1-2.1
			c1.997,0,3.75,0.703,5.25,2.1c1.5,1.401,2.25,3.104,2.25,5.1v7.2c0,2.002-0.75,3.703-2.25,5.101c-1.5,1.401-3.253,2.1-5.25,2.1
			c-2.001,0-3.703-0.698-5.1-2.1C0.699,209.503,0,207.802,0,205.8z"/>
		<path d="M101.55,181.95c-21.3-20.7-31.95-45.797-31.95-75.3c0-29.499,10.65-54.6,31.95-75.3C122.85,10.65,148.598,0.202,178.8,0
			c25.2,0,47.798,7.702,67.8,23.1c1.599,1.401,2.55,3.15,2.85,5.25s-0.253,3.853-1.65,5.25c-1.2,1.8-2.85,2.803-4.95,3
			c-2.1,0.202-3.853-0.3-5.25-1.5c-17.4-13.599-37.003-20.4-58.8-20.4c-26.203,0-48.501,9-66.9,27c-18.403,18-27.6,39.703-27.6,65.1
			c0,25.401,9.197,47.002,27.6,64.8c18.398,17.804,39.848,26.7,64.35,26.7c24.497,0,44.747-6.797,60.75-20.399
			c1.8-1.2,3.75-1.65,5.85-1.351s3.647,1.351,4.65,3.15c1.397,1.401,1.997,3.201,1.8,5.399c-0.202,2.203-1.102,3.9-2.7,5.101
			c-19.8,15.201-42.403,22.8-67.8,22.8C148.598,213,122.85,202.65,101.55,181.95z"/>
		<path d="M432.898,205.8v-90.6h-108v90.6c0,2.002-0.75,3.703-2.25,5.101c-1.5,1.401-3.253,2.1-5.25,2.1
			c-2.001,0-3.703-0.698-5.1-2.1c-1.401-1.397-2.1-3.099-2.1-5.101V10.2c0-1.997,0.698-3.699,2.1-5.1c1.397-1.397,3.099-2.1,5.1-2.1
			c1.997,0,3.75,0.703,5.25,2.1c1.5,1.401,2.25,3.103,2.25,5.1v90.6h108V10.2c0-1.997,0.699-3.699,2.1-5.1
			c1.397-1.397,3.099-2.1,5.1-2.1c1.997,0,3.75,0.703,5.25,2.1c1.5,1.401,2.25,3.103,2.25,5.1v195.6c0,2.002-0.75,3.703-2.25,5.101
			c-1.5,1.401-3.253,2.1-5.25,2.1c-2.001,0-3.703-0.698-5.1-2.1C433.597,209.503,432.898,207.802,432.898,205.8z"/>
		<path d="M665.999,212.7l-2.7,0.3c-3.402,0-5.699-1.599-6.899-4.8l-66.3-177l0,0l-66.601,177c-1.2,3.201-3.501,4.8-6.9,4.8
			l-2.7-0.3c-1.8-0.797-3.15-2.147-4.05-4.05c-0.9-1.898-0.952-3.75-0.15-5.551l72.9-194.7c1.396-3,3.899-4.5,7.5-4.5
			c3.6,0,5.896,1.5,6.899,4.5l72.9,194.7c0.797,1.801,0.797,3.652,0,5.551C669.097,210.553,667.798,211.903,665.999,212.7z
			 M590.099,31.2L547.499,144l-24,64.2L590.099,31.2z"/>
		<path display="none" d="M707.398,106.5c0.196-29.597,10.097-54.75,29.699-75.45C756.696,10.35,780.546,0,808.648,0
			c28.097,0,51.848,10.35,71.25,31.05c19.396,20.7,29.198,45.854,29.399,75.45c-0.201,29.602-10.003,54.75-29.399,75.45
			c-19.402,20.7-43.153,31.05-71.25,31.05c-28.102,0-51.952-10.35-71.551-31.05C717.495,161.25,707.594,136.102,707.398,106.5z
			 M808.347,15c-23.699,0-44.001,8.803-60.899,26.4c-16.903,17.602-25.351,39.253-25.351,64.95c0,25.702,8.447,47.452,25.351,65.25
			c16.898,17.804,37.148,26.7,60.75,26.7c23.597,0,43.8-8.948,60.6-26.85c16.8-17.897,25.299-39.549,25.5-64.95
			c-0.201-25.8-8.653-47.499-25.35-65.1C852.246,23.803,832.047,15,808.347,15z"/>
		<path d="M980.395,54.6c0.398,20.001,20.597,33.801,60.6,41.4h0.6c22.997,4.2,40.801,10.603,53.4,19.2
			c15.398,10.003,23.1,23.25,23.1,39.75s-7.753,30.352-23.25,41.55c-15.501,11.203-33.651,16.8-54.449,16.8
			c-26.4-0.201-52.2-10.298-77.4-30.3c-3.201-2.799-3.502-5.896-0.9-9.3c1.2-1.397,2.7-2.198,4.5-2.4
			c1.801-0.196,3.398,0.3,4.801,1.5c22.598,18.202,45.6,27.202,69,27c18.398,0,33.797-4.599,46.199-13.8c12-8.597,18-18.998,18-31.2
			c0-22.396-21.899-37.697-65.699-45.9h-0.601c-47.399-8.798-71.1-26.897-71.1-54.3c0-15.6,7.148-28.599,21.45-39
			c14.297-10.397,31.35-15.6,51.149-15.6c8.597,0,17.25,1.453,25.95,4.35c8.7,2.901,15.45,5.7,20.25,8.4s10.997,6.553,18.6,11.55
			c3.601,2.4,4.2,5.503,1.801,9.3c-2.203,3.6-5.203,4.2-9,1.8c-7.2-4.598-13.051-8.198-17.551-10.8c-4.5-2.597-10.5-5.147-18-7.65
			c-7.5-2.499-14.85-3.75-22.05-3.75c-16.8,0-31.102,4.2-42.899,12.6C985.893,34.003,980.395,43.603,980.395,54.6z"/>
	</g>
</g>
<g id="Livello_14">
	<g id="piccolo" display="none">
		<path display="inline" fill="#FFDC80" d="M819.512,98.428c1.769,2.277,2.832,5.129,2.832,8.236c0,7.43-6.023,13.453-13.453,13.453
			s-13.453-6.023-13.453-13.453c0-3.106,1.063-5.958,2.832-8.236c-2.984,2.821-4.855,6.806-4.855,11.236
			c0,8.548,6.929,15.476,15.477,15.476s15.477-6.928,15.477-15.476C824.368,105.234,822.497,101.25,819.512,98.428z"/>
		<path display="inline" fill="#CBDC8C" d="M811.891,91.188c-4.431,0-8.415,1.872-11.236,4.855c2.277-1.769,5.13-2.832,8.236-2.832
			c7.43,0,13.453,6.023,13.453,13.453s-6.023,13.453-13.453,13.453c-3.108,0-5.962-1.064-8.239-2.835
			c2.821,2.985,6.807,4.858,11.239,4.858c8.548,0,15.477-6.928,15.477-15.476C827.368,98.118,820.439,91.188,811.891,91.188z"/>
		<path display="inline" fill="#9496C6" d="M808.891,88.188c-8.548,0-15.477,6.93-15.477,15.477c0,4.433,1.873,8.418,4.858,11.24
			c-1.771-2.278-2.835-5.132-2.835-8.24c0-7.43,6.023-13.453,13.453-13.453s13.453,6.023,13.453,13.453
			c0,3.108-1.064,5.962-2.835,8.24c2.985-2.821,4.858-6.807,4.858-11.24C824.368,95.117,817.439,88.188,808.891,88.188z"/>
		<path display="inline" fill="#EF8768" d="M808.891,120.117c-7.43,0-13.453-6.023-13.453-13.453c0-7.43,6.023-13.453,13.453-13.453
			c3.107,0,5.961,1.064,8.238,2.833c-2.821-2.985-6.807-4.857-11.238-4.857c-8.548,0-15.477,6.929-15.477,15.477
			s6.929,15.476,15.477,15.476c4.432,0,8.417-1.872,11.238-4.857C814.852,119.053,811.999,120.117,808.891,120.117z"/>
		<g display="inline">
			<path fill="#FFDC80" d="M822.105,104.176c-0.035-0.19-0.078-0.377-0.122-0.565C822.027,103.799,822.069,103.986,822.105,104.176z
				"/>
			<path fill="#FFDC80" d="M821.831,103.02c-0.061-0.215-0.124-0.427-0.194-0.638C821.708,102.592,821.77,102.805,821.831,103.02z"
				/>
			<path fill="#FFDC80" d="M821.481,101.957c-0.093-0.247-0.186-0.493-0.292-0.733C821.295,101.463,821.388,101.71,821.481,101.957z
				"/>
			<path fill="#FFDC80" d="M821.161,101.167c-0.439-0.981-0.995-1.897-1.646-2.736C820.166,99.269,820.719,100.188,821.161,101.167z
				"/>
			<path fill="#FFDC80" d="M822.28,105.396c-0.014-0.153-0.039-0.303-0.059-0.455C822.242,105.092,822.266,105.242,822.28,105.396z"
				/>
			<path fill="#FFDC80" d="M803.389,118.932c0.021,0.01,0.039,0.021,0.06,0.029C803.428,118.952,803.41,118.941,803.389,118.932z"/>
			<path fill="#FFDC80" d="M804.182,119.253c0.142,0.054,0.282,0.107,0.427,0.156C804.464,119.36,804.324,119.306,804.182,119.253z"
				/>
			<path fill="#FFDC80" d="M811.891,122.141c-4.431,0-8.415-1.872-11.236-4.855c-3.169-2.461-5.217-6.298-5.217-10.621
				c0-3.106,1.063-5.959,2.832-8.236c-2.984,2.822-4.855,6.807-4.855,11.236c0,8.549,6.929,15.477,15.477,15.477
				c5.04,0,9.503-2.419,12.329-6.147C818.625,120.96,815.399,122.141,811.891,122.141z"/>
			<path fill="#FFDC80" d="M806.403,119.878c0.252,0.048,0.508,0.083,0.765,0.116C806.911,119.962,806.655,119.925,806.403,119.878z
				"/>
			<path fill="#FFDC80" d="M807.623,120.053c0.418,0.04,0.84,0.064,1.269,0.064C808.462,120.117,808.041,120.092,807.623,120.053z"
				/>
			<path fill="#FFDC80" d="M805.245,119.604c0.196,0.056,0.395,0.105,0.594,0.152C805.639,119.71,805.441,119.658,805.245,119.604z"
				/>
		</g>
		<g display="inline">
			<path fill="#CBDC8C" d="M804.609,93.919c0.21-0.071,0.424-0.134,0.638-0.195C805.032,93.785,804.819,93.848,804.609,93.919z"/>
			<path fill="#CBDC8C" d="M800.657,96.042c0.84-0.652,1.758-1.206,2.736-1.647C802.413,94.834,801.497,95.39,800.657,96.042z"/>
			<path fill="#CBDC8C" d="M805.838,93.572c0.188-0.044,0.375-0.086,0.565-0.122C806.213,93.486,806.026,93.528,805.838,93.572z"/>
			<path fill="#CBDC8C" d="M807.167,93.333c0.151-0.02,0.302-0.044,0.455-0.059C807.469,93.289,807.319,93.314,807.167,93.333z"/>
			<path fill="#CBDC8C" d="M821.219,94.336c1.968,2.596,3.148,5.82,3.148,9.328c0,4.433-1.873,8.418-4.858,11.24
				c0.001,0,0.001-0.001,0.001-0.002c-2.461,3.168-6.297,5.215-10.619,5.215c-3.108,0-5.962-1.064-8.239-2.835
				c2.821,2.985,6.807,4.858,11.239,4.858c8.548,0,15.477-6.928,15.477-15.477C827.368,101.625,824.948,97.162,821.219,94.336z"/>
			<path fill="#CBDC8C" d="M803.451,94.366c0.24-0.106,0.487-0.199,0.733-0.292C803.937,94.167,803.691,94.26,803.451,94.366z"/>
			<path fill="#CBDC8C" d="M821.159,112.167c0.01-0.02,0.021-0.04,0.029-0.061C821.179,112.126,821.167,112.146,821.159,112.167z"/>
			<path fill="#CBDC8C" d="M821.481,111.371c0.053-0.14,0.106-0.28,0.154-0.422C821.587,111.091,821.534,111.23,821.481,111.371z"/>
			<path fill="#CBDC8C" d="M822.105,109.151c0.048-0.251,0.083-0.506,0.116-0.762C822.189,108.646,822.152,108.9,822.105,109.151z"
				/>
			<path fill="#CBDC8C" d="M822.28,107.932c0.04-0.417,0.064-0.84,0.064-1.268C822.344,107.092,822.319,107.514,822.28,107.932z"/>
			<path fill="#CBDC8C" d="M821.832,110.308c0.055-0.194,0.104-0.391,0.151-0.589C821.936,109.917,821.886,110.113,821.832,110.308z
				"/>
		</g>
	</g>
	<g id="piccolo1">
		<path fill="#FFDC80" d="M808.891,120.764c-6.795,0-12.465-4.808-13.801-11.208c-0.193,0.934-0.299,1.901-0.299,2.893
			c0,7.787,6.313,14.1,14.1,14.1c7.785,0,14.1-6.313,14.1-14.1c0-0.991-0.104-1.959-0.301-2.893
			C821.356,115.956,815.688,120.764,808.891,120.764z"/>
		<path fill="#CBDC8C" d="M814.674,92.564c-0.99,0-1.957,0.105-2.891,0.3c6.398,1.334,11.207,7.005,11.207,13.8
			s-4.809,12.466-11.207,13.8c0.934,0.195,1.9,0.3,2.891,0.3c7.787,0,14.1-6.313,14.1-14.1S822.461,92.564,814.674,92.564z"/>
		<path fill="#9496C6" d="M808.891,92.564c6.797,0,12.465,4.809,13.799,11.208c0.197-0.934,0.301-1.901,0.301-2.893
			c0-7.787-6.314-14.1-14.1-14.1c-7.787,0-14.1,6.313-14.1,14.1c0,0.991,0.105,1.959,0.299,2.893
			C796.426,97.373,802.096,92.564,808.891,92.564z"/>
		<path fill="#EF8768" d="M794.792,106.664c0-6.795,4.809-12.466,11.207-13.8c-0.934-0.194-1.9-0.3-2.891-0.3
			c-7.787,0-14.1,6.313-14.1,14.1s6.313,14.1,14.1,14.1c0.99,0,1.957-0.104,2.891-0.3C799.6,119.13,794.792,113.459,794.792,106.664
			z"/>
		<g>
			<path fill="#FFDC80" d="M820.368,114.842c0.127-0.179,0.246-0.36,0.363-0.545C820.614,114.481,820.495,114.663,820.368,114.842z"
				/>
			<path fill="#FFDC80" d="M822.43,110.578c0.068-0.23,0.125-0.467,0.18-0.704C822.555,110.11,822.497,110.348,822.43,110.578z"/>
			<path fill="#FFDC80" d="M821.01,113.856c0.117-0.195,0.223-0.394,0.33-0.595C821.233,113.463,821.127,113.661,821.01,113.856z"/>
			<path fill="#FFDC80" d="M819.647,115.768c0.137-0.159,0.266-0.325,0.393-0.491C819.913,115.442,819.784,115.608,819.647,115.768z
				"/>
			<path fill="#FFDC80" d="M821.573,112.813c0.102-0.208,0.195-0.422,0.285-0.638C821.768,112.392,821.674,112.605,821.573,112.813z
				"/>
			<path fill="#FFDC80" d="M822.047,111.721c0.086-0.223,0.162-0.447,0.234-0.676C822.209,111.273,822.131,111.498,822.047,111.721z
				"/>
			<path fill="#FFDC80" d="M819.266,116.193c-0.135,0.146-0.27,0.293-0.412,0.435C818.997,116.486,819.131,116.339,819.266,116.193z
				"/>
			<path fill="#FFDC80" d="M813.948,119.82c0.154-0.059,0.303-0.125,0.455-0.188C814.25,119.695,814.102,119.762,813.948,119.82z"/>
			<path fill="#FFDC80" d="M815.042,119.346c0.15-0.073,0.299-0.153,0.447-0.231C815.34,119.192,815.192,119.272,815.042,119.346z"
				/>
			<path fill="#FFDC80" d="M812.805,120.204c0.158-0.046,0.311-0.097,0.467-0.148C813.116,120.107,812.963,120.158,812.805,120.204z
				"/>
			<path fill="#FFDC80" d="M817.995,117.421c0.145-0.123,0.285-0.252,0.426-0.381C818.28,117.169,818.139,117.298,817.995,117.421z"
				/>
			<path fill="#FFDC80" d="M816.083,118.784c0.15-0.089,0.295-0.184,0.441-0.278C816.377,118.601,816.233,118.695,816.083,118.784z"
				/>
			<path fill="#FFDC80" d="M814.674,120.764c-0.99,0-1.957-0.104-2.891-0.3c0.105-0.022,0.211-0.056,0.318-0.08
				c-1.033,0.241-2.105,0.38-3.211,0.38c-6.795,0-12.465-4.808-13.801-11.208c-0.193,0.934-0.299,1.901-0.299,2.893
				c0,7.787,6.313,14.1,14.1,14.1c5.381,0,10.057-3.017,12.432-7.451C819.342,120.158,817.081,120.764,814.674,120.764z"/>
			<path fill="#FFDC80" d="M817.067,118.142c0.148-0.107,0.293-0.218,0.436-0.328C817.36,117.924,817.215,118.034,817.067,118.142z"
				/>
		</g>
	</g>
	<g id="grande">
		<path display="none" fill="#FFDC80" d="M901.789,80.644c2.313,8.278,3.555,17.003,3.555,26.02
			c0,53.271-43.183,96.454-96.452,96.454s-96.452-43.183-96.452-96.454c0-9.016,1.241-17.742,3.555-26.02
			c-3.886,10.608-6.007,22.066-6.007,34.021c0,54.623,44.281,98.904,98.904,98.904s98.904-44.281,98.904-98.904
			C907.795,102.71,905.674,91.251,901.789,80.644z"/>
		<path fill="#CBDC8C" d="M816.891,7.76c-11.951,0-23.407,2.12-34.014,6.004c8.276-2.313,17-3.553,26.014-3.553
			c53.27,0,96.452,43.183,96.452,96.452c0,53.271-43.183,96.454-96.452,96.454c-9.014,0-17.737-1.24-26.013-3.553
			c10.605,3.884,22.062,6.004,34.013,6.004c54.623,0,98.904-44.281,98.904-98.904C915.795,52.041,871.514,7.76,816.891,7.76z"/>
		<path fill="#9496C6" d="M712.439,106.663c0-53.27,43.183-96.452,96.452-96.452s96.452,43.183,96.452,96.452
			c0,9.018-1.241,17.744-3.556,26.023c3.887-10.608,6.008-22.068,6.008-34.022c0-54.623-44.281-98.904-98.904-98.904
			s-98.904,44.281-98.904,98.904c0,11.955,2.121,23.414,6.008,34.022C713.68,124.407,712.439,115.681,712.439,106.663z"/>
		<path fill="#EF8768" d="M808.891,203.117c-53.27,0-96.452-43.183-96.452-96.454c0-53.27,43.183-96.452,96.452-96.452
			c9.016,0,17.741,1.241,26.019,3.554C824.302,9.88,812.844,7.76,800.891,7.76c-54.623,0-98.904,44.28-98.904,98.904
			c0,54.623,44.281,98.904,98.904,98.904c11.951,0,23.407-2.12,34.013-6.004C826.628,201.877,817.905,203.117,808.891,203.117z"/>
		<g>
			<path fill="#CBDC8C" d="M903.91,123.295c0.021-0.117,0.039-0.235,0.059-0.354C903.949,123.06,903.93,123.178,903.91,123.295z"/>
			<path fill="#CBDC8C" d="M805.861,10.263c1.007-0.031,2.017-0.052,3.03-0.052C807.877,10.211,806.868,10.232,805.861,10.263z"/>
			<path fill="#CBDC8C" d="M904.379,120.301c0.029-0.21,0.06-0.42,0.088-0.631C904.439,119.881,904.409,120.091,904.379,120.301z"/>
			<path fill="#CBDC8C" d="M902.553,129.758c0.031-0.129,0.063-0.257,0.094-0.386C902.617,129.501,902.584,129.629,902.553,129.758z
				"/>
			<path fill="#CBDC8C" d="M904.818,116.762c0.004-0.034,0.009-0.069,0.013-0.104C904.827,116.692,904.822,116.728,904.818,116.762z
				"/>
			<path fill="#CBDC8C" d="M905.258,110.545c0.012-0.283,0.024-0.566,0.033-0.85C905.283,109.979,905.27,110.262,905.258,110.545z"
				/>
			<path fill="#CBDC8C" d="M905.091,113.626c0.018-0.25,0.031-0.5,0.048-0.75C905.123,113.125,905.109,113.376,905.091,113.626z"/>
			<path fill="#CBDC8C" d="M798.901,10.724c1.005-0.104,2.015-0.188,3.028-0.261C800.916,10.535,799.906,10.62,798.901,10.724z"/>
			<path fill="#CBDC8C" d="M802.683,10.416c0.772-0.049,1.548-0.089,2.326-0.12C804.231,10.326,803.456,10.366,802.683,10.416z"/>
			<path fill="#CBDC8C" d="M786.208,12.901c1.994-0.481,4.012-0.902,6.052-1.257C790.219,11.999,788.202,12.42,786.208,12.901z"/>
			<path fill="#CBDC8C" d="M882.708,32.846c15.602,17.485,25.088,40.542,25.088,65.818c0,11.954-2.121,23.412-6.007,34.02
				c-11.355,40.63-48.644,70.434-92.897,70.434c-9.014,0-17.737-1.24-26.013-3.553c10.605,3.884,22.062,6.004,34.013,6.004
				c54.623,0,98.904-44.281,98.904-98.904C915.795,77.316,903.008,50.959,882.708,32.846z"/>
			<path fill="#CBDC8C" d="M782.907,13.756c0.953-0.266,1.913-0.515,2.877-0.752C784.82,13.241,783.86,13.49,782.907,13.756z"/>
			<path fill="#CBDC8C" d="M795.891,11.086c0.964-0.13,1.931-0.249,2.902-0.35C797.822,10.837,796.855,10.956,795.891,11.086z"/>
			<path fill="#CBDC8C" d="M792.63,11.583c0.87-0.148,1.744-0.283,2.622-0.408C794.375,11.299,793.5,11.435,792.63,11.583z"/>
		</g>
		<g>
			<path fill="#FFDC80" d="M905.259,102.783c-0.031-0.781-0.071-1.56-0.121-2.335C905.188,101.224,905.228,102.002,905.259,102.783z
				"/>
			<path fill="#FFDC80" d="M905.091,99.704c-0.072-1.016-0.157-2.029-0.261-3.036C904.934,97.675,905.018,98.688,905.091,99.704z"/>
			<path fill="#FFDC80" d="M904.379,93.032c-0.125-0.888-0.262-1.771-0.411-2.651C904.118,91.261,904.254,92.145,904.379,93.032z"/>
			<path fill="#FFDC80" d="M903.911,90.035c-0.356-2.049-0.779-4.075-1.262-6.077C903.131,85.96,903.554,87.986,903.911,90.035z"/>
			<path fill="#FFDC80" d="M905.343,106.663c0-1.015-0.021-2.024-0.052-3.032C905.323,104.639,905.343,105.648,905.343,106.663z"/>
			<path fill="#FFDC80" d="M901.79,80.645c-0.001,0-0.001-0.001-0.001-0.001c0.271,0.969,0.523,1.945,0.765,2.926
				C902.313,82.589,902.059,81.613,901.79,80.645z"/>
			<path fill="#FFDC80" d="M904.82,96.575c-0.103-0.979-0.222-1.952-0.353-2.922C904.598,94.623,904.717,95.597,904.82,96.575z"/>
			<path fill="#FFDC80" d="M792.261,201.685c0.122,0.021,0.244,0.04,0.365,0.061C792.505,201.725,792.383,201.705,792.261,201.685z"
				/>
			<path fill="#FFDC80" d="M785.794,200.327c0.135,0.032,0.27,0.065,0.405,0.099C786.064,200.393,785.929,200.359,785.794,200.327z"
				/>
			<path fill="#FFDC80" d="M795.254,202.153c0.212,0.03,0.424,0.061,0.637,0.089C795.678,202.214,795.466,202.184,795.254,202.153z"
				/>
			<path fill="#FFDC80" d="M801.93,202.865c0.25,0.018,0.502,0.031,0.753,0.048C802.432,202.896,802.18,202.883,801.93,202.865z"/>
			<path fill="#FFDC80" d="M798.793,202.592c0.036,0.004,0.071,0.009,0.107,0.013C798.865,202.601,798.83,202.596,798.793,202.592z"
				/>
			<path fill="#FFDC80" d="M805.009,203.033c0.284,0.011,0.567,0.023,0.852,0.032C805.577,203.057,805.293,203.044,805.009,203.033z
				"/>
			<path fill="#FFDC80" d="M816.891,205.568c-11.951,0-23.407-2.12-34.013-6.004h0.001c-40.633-11.354-70.44-48.644-70.44-92.901
				c0-9.016,1.241-17.742,3.555-26.02c-3.886,10.608-6.007,22.066-6.007,34.021c0,54.623,44.281,98.904,98.904,98.904
				c29.347,0,55.704-12.786,73.817-33.087C865.224,196.082,842.167,205.568,816.891,205.568z"/>
		</g>
	</g>
</g>
<g id="Livello_8_copia">
	<g>
		<polygon points="899.787,106.664 883.318,93.031 883.318,102.114 883.318,102.213 870.894,102.12 870.894,111.208 
			883.318,111.208 883.318,120.297 		"/>
		<polygon points="734.464,93.031 717.996,106.665 734.464,120.297 734.464,111.215 734.464,111.116 746.888,111.208 
			746.888,102.12 734.464,102.12 		"/>
	</g>
	<g>
		<polygon points="873.164,170.937 871.159,149.652 864.736,156.074 864.667,156.145 855.947,147.294 849.521,153.72 
			858.306,162.505 851.879,168.932 		"/>
		<polygon points="765.903,44.396 744.618,42.392 746.624,63.676 753.045,57.254 753.116,57.185 761.835,66.035 768.261,59.608 
			759.476,50.823 		"/>
	</g>
	<g>
		<polygon points="808.891,197.559 822.524,181.091 813.441,181.091 813.342,181.091 813.435,168.667 804.347,168.667 
			804.347,181.091 795.258,181.091 		"/>
		<polygon points="822.524,32.237 808.89,15.769 795.258,32.237 804.34,32.237 804.439,32.238 804.347,44.662 813.435,44.661 
			813.435,32.237 		"/>
	</g>
	<g>
		<polygon points="744.619,170.936 765.903,168.932 759.481,162.509 759.411,162.438 768.261,153.72 761.835,147.293 
			753.05,156.078 746.624,149.651 		"/>
		<polygon points="871.159,63.676 873.164,42.39 851.878,44.396 858.301,50.818 858.371,50.888 849.52,59.608 855.947,66.034 
			864.732,57.249 		"/>
	</g>
</g>
</svg>
